<svg width="448" height="452" viewBox="0 0 448 452" fill="none" xmlns="http://www.w3.org/2000/svg">
<rect x="348.889" y="36.2642" width="89.9594" height="109.415" transform="rotate(45 348.889 36.2642)" fill="#E2D784"/>
<path d="M416.18 32.6416L413.17 99.2627L384.238 91.2525L361.715 68.8128L349.559 35.6519L416.18 32.6416Z" fill="#E2D784"/>
<mask id="path-3-inside-1_10_60" fill="white">
<path d="M0.124268 385.884L63.7639 449.523L368.293 144.995L304.653 81.355L0.124268 385.884Z"/>
</mask>
<path d="M0.124268 385.884L63.7639 449.523L368.293 144.995L304.653 81.355L0.124268 385.884Z" fill="#05595B"/>
<path d="M0.124268 385.884L-3.41127 389.419L-6.9468 385.884L-3.41127 382.348L0.124268 385.884ZM63.7639 449.523L67.2994 453.059L63.7639 456.594L60.2283 453.059L63.7639 449.523ZM3.6598 382.348L67.2994 445.988L60.2283 453.059L-3.41127 389.419L3.6598 382.348ZM60.2283 445.988L364.757 141.459L371.828 148.53L67.2994 453.059L60.2283 445.988ZM308.189 84.8905L3.6598 389.419L-3.41127 382.348L301.118 77.8195L308.189 84.8905Z" fill="#062C30" fill-opacity="0.3" mask="url(#path-3-inside-1_10_60)"/>
<rect x="3.7981" y="95.7173" width="90" height="503" transform="rotate(-45 3.7981 95.7173)" fill="#05595B"/>
<rect x="7.33363" y="95.7173" width="85" height="498" transform="rotate(-45 7.33363 95.7173)" stroke="#062C30" stroke-opacity="0.3" stroke-width="5"/>
</svg>
